<svg width="50" height="50" fill="none" xmlns="http://www.w3.org/2000/svg"><g clip-path="url(#a)"><path fill-rule="evenodd" clip-rule="evenodd" d="M0 25.14C0 37.569 9.027 47.904 20.834 50V31.944h-6.25V25h6.25v-5.556c0-6.25 4.026-9.721 9.722-9.721 1.805 0 3.75.277 5.555.554v6.39h-3.194c-3.057 0-3.75 1.527-3.75 3.473V25h6.666l-1.11 6.944h-5.556V50C40.973 47.904 50 37.57 50 25.14 50 11.312 38.75 0 25 0S0 11.313 0 25.14Z" fill="#fff"/></g><defs><clipPath id="a"><path fill="#fff" d="M0 0h50v50H0z"/></clipPath></defs></svg>