<svg width="50" height="50" fill="none" xmlns="http://www.w3.org/2000/svg"><path d="M32.5 25a7.5 7.5 0 1 1-15 0c0-.428.045-.845.123-1.25H15v9.992c0 .695.563 1.258 1.258 1.258h17.487A1.258 1.258 0 0 0 35 33.742V23.75h-2.622c.077.405.122.822.122 1.25ZM25 30a5.002 5.002 0 1 0-.003-10.003A5.002 5.002 0 0 0 25 30Zm6-10.25h2.998a.752.752 0 0 0 .752-.75v-2.998a.753.753 0 0 0-.752-.752H31a.752.752 0 0 0-.752.752V19c.002.412.34.75.752.75ZM25 1a24 24 0 1 0 0 48 24 24 0 0 0 0-48Zm12.5 33.722a2.786 2.786 0 0 1-2.777 2.778H15.278a2.786 2.786 0 0 1-2.778-2.778V15.277a2.786 2.786 0 0 1 2.778-2.777h19.445a2.786 2.786 0 0 1 2.777 2.777v19.445Z" fill="#fff"/></svg>