<svg width="50" height="50" fill="none" xmlns="http://www.w3.org/2000/svg"><path d="M25 1C11.745 1 1 11.745 1 25s10.745 24 24 24 24-10.745 24-24S38.255 1 25 1Zm9.23 27.078s2.123 2.095 2.645 3.067c.015.02.023.04.028.05.212.357.262.635.157.843-.175.345-.775.515-.98.53h-3.75c-.26 0-.805-.068-1.465-.523-.507-.355-1.007-.938-1.495-1.505-.727-.845-1.357-1.575-1.992-1.575-.081 0-.161.012-.238.038-.48.154-1.095.84-1.095 2.665 0 .57-.45.897-.767.897H23.56c-.585 0-3.632-.205-6.332-3.052-3.305-3.488-6.28-10.483-6.305-10.548-.188-.453.2-.695.622-.695h3.788c.505 0 .67.308.785.58.135.317.63 1.58 1.442 3 1.318 2.315 2.125 3.255 2.773 3.255a.75.75 0 0 0 .347-.09c.845-.47.688-3.483.65-4.108 0-.117-.002-1.347-.435-1.937-.31-.427-.837-.59-1.157-.65.13-.179.3-.324.497-.422.58-.29 1.625-.333 2.663-.333h.577c1.125.015 1.415.087 1.823.19.825.198.842.73.77 2.553a39.754 39.754 0 0 0-.045 1.792c0 .15-.008.31-.008.48-.025.928-.055 1.98.6 2.413a.54.54 0 0 0 .285.082c.228 0 .913 0 2.768-3.183a24.286 24.286 0 0 0 1.487-3.184c.038-.066.148-.265.278-.343a.665.665 0 0 1 .31-.072h4.452c.485 0 .818.072.88.26.11.297-.02 1.204-2.052 3.957l-.908 1.197c-1.842 2.415-1.842 2.538.115 4.37Z" fill="#fff"/></svg>